<?xml version="1.0" encoding="UTF-8"?>
<svg width="20px" height="20px" viewBox="0 0 20 20" version="1.1" xmlns="http://www.w3.org/2000/svg" xmlns:xlink="http://www.w3.org/1999/xlink">
    <!-- Generator: Sketch 55.2 (78181) - https://sketchapp.com -->
    <title>ic_树状图 拖动排序</title>
    <desc>Created with Sketch.</desc>
    <g id="页面1" stroke="none" stroke-width="1" fill="none" fill-rule="evenodd">
        <g id="3.4、素材-排序" transform="translate(-1325.000000, -523.000000)">
            <g id="编组备份" transform="translate(685.000000, 414.000000)">
                <g id="Group-2-Copy-11" transform="translate(640.000000, 109.000000)">
                    <rect id="ic_树状图-拖动排序" fill="#434343" opacity="0" x="0" y="0" width="20" height="20"></rect>
                    <path d="M0.5,5 L12.5,5 C12.7761424,5 13,5.22385763 13,5.5 C13,5.77614237 12.7761424,6 12.5,6 L0.5,6 C0.223857625,6 -5.630713e-13,5.77614237 -5.63105118e-13,5.5 C-5.63138936e-13,5.22385763 0.223857625,5 0.5,5 Z M0.5,10 L12.5,10 C12.7761424,10 13,10.2238576 13,10.5 C13,10.7761424 12.7761424,11 12.5,11 L0.5,11 C0.223857625,11 -7.90444976e-13,10.7761424 -7.90478794e-13,10.5 C-7.90512611e-13,10.2238576 0.223857625,10 0.5,10 Z M0.5,15 L12.5,15 C12.7761424,15 13,15.2238576 13,15.5 C13,15.7761424 12.7761424,16 12.5,16 L0.5,16 C0.223857625,16 -1.18982091e-13,15.7761424 -1.19015908e-13,15.5 C-1.19049726e-13,15.2238576 0.223857625,15 0.5,15 Z" id="Combined-Shape" fill="#309BFF"></path>
                    <g id="Group-8" transform="translate(14.000000, 4.000000)" stroke="#309BFF" stroke-linecap="round" stroke-linejoin="round">
                        <polyline id="Path-6" points="1.01607611e-12 2 2.5 0 5 2"></polyline>
                        <path d="M2.5,1 L2.5,5" id="Path-7"></path>
                    </g>
                    <g id="Group-7" transform="translate(16.500000, 14.500000) scale(1, -1) translate(-16.500000, -14.500000) translate(14.000000, 12.000000)" stroke="#309BFF" stroke-linecap="round" stroke-linejoin="round">
                        <polyline id="Path-6-Copy" points="1.01607611e-12 2 2.5 0 5 2"></polyline>
                        <path d="M2.5,1 L2.5,5" id="Path-7-Copy"></path>
                    </g>
                </g>
            </g>
        </g>
    </g>
</svg>