<?xml version="1.0" encoding="UTF-8"?>
<svg width="10px" height="10px" viewBox="0 0 10 10" version="1.1" xmlns="http://www.w3.org/2000/svg" xmlns:xlink="http://www.w3.org/1999/xlink">
    <!-- Generator: Sketch 55.2 (78181) - https://sketchapp.com -->
    <title>左</title>
    <desc>Created with Sketch.</desc>
    <g id="交互设计框架（完整）" stroke="none" stroke-width="1" fill="none" fill-rule="evenodd">
        <g id="切图" transform="translate(-459.000000, -115.000000)" fill="#309BFF">
            <g id="展开icon" transform="translate(464.000000, 120.000000) scale(-1, 1) translate(-464.000000, -120.000000) translate(459.000000, 115.000000)">
                <path d="M8.7826978,5 L4.14768352,0.783112792 C3.95077216,0.603964907 3.95077216,0.313508798 4.14768352,0.134360913 C4.34459488,-0.0447869711 4.66385128,-0.0447869711 4.86076264,0.134360913 L9.85231648,4.67562406 C10.0492278,4.85477195 10.0492278,5.14522805 9.85231648,5.32437594 L4.86076264,9.86563909 C4.66385128,10.044787 4.34459488,10.044787 4.14768352,9.86563909 C3.95077216,9.6864912 3.95077216,9.39603509 4.14768352,9.21688721 L8.7826978,5 Z" id="22" transform="translate(7.000000, 5.000000) rotate(-360.000000) translate(-7.000000, -5.000000) "></path>
                <path d="M4.7826978,5 L0.147683521,0.783112792 C-0.0492278404,0.603964907 -0.0492278404,0.313508798 0.147683521,0.134360913 C0.344594883,-0.0447869711 0.663851279,-0.0447869711 0.860762641,0.134360913 L5.85231648,4.67562406 C6.04922784,4.85477195 6.04922784,5.14522805 5.85231648,5.32437594 L0.860762641,9.86563909 C0.663851279,10.044787 0.344594883,10.044787 0.147683521,9.86563909 C-0.0492278404,9.6864912 -0.0492278404,9.39603509 0.147683521,9.21688721 L4.7826978,5 Z" id="22备份" transform="translate(3.000000, 5.000000) rotate(-360.000000) translate(-3.000000, -5.000000) "></path>
            </g>
        </g>
    </g>
</svg>