<?xml version="1.0" encoding="UTF-8"?>
<svg width="10px" height="12px" viewBox="0 0 10 12" version="1.1" xmlns="http://www.w3.org/2000/svg" xmlns:xlink="http://www.w3.org/1999/xlink">
    <!-- Generator: Sketch 55.2 (78181) - https://sketchapp.com -->
    <title>编组 4</title>
    <desc>Created with Sketch.</desc>
    <g id="创课-动态学习框" stroke="none" stroke-width="1" fill="none" fill-rule="evenodd">
        <g id="配音练习属性设置" transform="translate(-1043.000000, -371.000000)" fill="#309BFF" stroke="#309BFF">
            <g id="编组-2" transform="translate(650.000000, 130.000000)">
                <g id="知识点选择-copy-3" transform="translate(380.000000, 229.000000)">
                    <g id="编组-4" transform="translate(13.000000, 12.000000)">
                        <path d="M1,0.5 C0.723857625,0.5 0.5,0.723857625 0.5,1 L0.5,11 C0.5,11.2761424 0.723857625,11.5 1,11.5 L2,11.5 C2.27614237,11.5 2.5,11.2761424 2.5,11 L2.5,1 C2.5,0.723857625 2.27614237,0.5 2,0.5 L1,0.5 Z" id="矩形-copy-6"></path>
                        <path d="M8,0.5 C7.72385763,0.5 7.5,0.723857625 7.5,1 L7.5,11 C7.5,11.2761424 7.72385763,11.5 8,11.5 L9,11.5 C9.27614237,11.5 9.5,11.2761424 9.5,11 L9.5,1 C9.5,0.723857625 9.27614237,0.5 9,0.5 L8,0.5 Z" id="矩形-copy-18"></path>
                    </g>
                </g>
            </g>
        </g>
    </g>
</svg>