<?xml version="1.0" encoding="UTF-8"?>
<svg width="150px" height="150px" viewBox="0 0 150 150" version="1.1" xmlns="http://www.w3.org/2000/svg" xmlns:xlink="http://www.w3.org/1999/xlink">
    <!-- Generator: Sketch 55.2 (78181) - https://sketchapp.com -->
    <title>空</title>
    <desc>Created with Sketch.</desc>
    <g id="交互设计框架（完整）" stroke="none" stroke-width="1" fill="none" fill-rule="evenodd">
        <g id="切图" transform="translate(-627.000000, -332.000000)">
            <g id="Group-5" transform="translate(627.000000, 332.000000)">
                <rect id="Rectangle-8" fill-opacity="0" fill="#D8D8D8" x="0" y="0" width="150" height="150"></rect>
                <g id="暂无内容" transform="translate(20.625000, 35.000000)">
                    <polygon id="Rectangle-63" fill="#C9E9FF" transform="translate(87.500000, 54.062500) scale(-1, 1) translate(-87.500000, -54.062500) " points="60 16.25 115 16.25 115 91.875 60 91.875"></polygon>
                    <polygon id="Rectangle-63" fill="#C9E9FF" transform="translate(34.062500, 54.062500) scale(-1, 1) translate(-34.062500, -54.062500) " points="6.25 16.25 61.875 16.25 61.875 91.875 6.25 91.875"></polygon>
                    <polyline id="Rectangle-63" stroke="#309BFF" stroke-width="1.25" transform="translate(27.500000, 49.687500) scale(-1, 1) translate(-27.500000, -49.687500) " points="48.7689866 11.875 55 11.875 55 87.5 0 87.5 0 11.875 0 11.875"></polyline>
                    <polygon id="Rectangle-63" fill="#C9E9FF" points="5.87248322 4.69121064 54.8098434 16.4361771 54.8098434 86.7244235 5.87248322 74.9794571"></polygon>
                    <polyline id="Rectangle-63" stroke="#309BFF" stroke-width="1.25" stroke-linecap="round" transform="translate(81.250000, 49.687500) scale(-1, 1) translate(-81.250000, -49.687500) " points="68.240893 12.5 108.125 12.5 108.125 86.875 54.375 86.875 54.375 12.5 54.375 12.5"></polyline>
                    <rect id="Rectangle-64" fill="#309BFF" x="96.875" y="11.875" width="3.75" height="1.25" rx="0.625"></rect>
                    <path d="M6.49748322,1.10895864 L6.49748322,75.1117091 L54.1848434,86.5566755 L54.1848434,12.5539251 L6.49748322,1.10895864 Z" id="Rectangle-63" stroke="#309BFF" stroke-width="1.25"></path>
                    <g id="内容" transform="translate(12.312359, 10.294118)" fill="#97D5FF">
                        <polygon id="Rectangle-5" points="8.3593263e-15 32.1691176 36.4192977 41.141588 36.4192977 65.5901174 -2.84217094e-13 56.6176471"></polygon>
                        <polygon id="Rectangle-5" points="8.3593263e-15 0 36.4192977 8.97247036 36.4192977 13.6885012 -2.84217094e-13 4.71603083"></polygon>
                        <polygon id="Rectangle-5" points="8.3593263e-15 9.65073529 36.4192977 18.6232056 36.4192977 23.3392365 -2.84217094e-13 14.3667661"></polygon>
                        <polygon id="Rectangle-5" points="8.3593263e-15 20.5882353 36.4192977 29.5607056 36.4192977 34.2767365 -2.84217094e-13 25.3042661"></polygon>
                    </g>
                    <g id="放大镜" transform="translate(84.073485, 50.146708) rotate(-45.000000) translate(-84.073485, -50.146708) translate(67.073485, 25.146708)" stroke="#309BFF" stroke-width="1.25">
                        <circle id="Oval-13" fill="#A9DCFE" cx="16.875" cy="16.875" r="16.25"></circle>
                        <rect id="Rectangle-3" fill="#C1E6FF" x="15" y="33.75" width="3.75" height="15.625"></rect>
                        <rect id="Rectangle-3" fill="#F2F6F7" x="13.75" y="33.125" width="6.25" height="3.125" rx="1.5625"></rect>
                    </g>
                </g>
            </g>
        </g>
    </g>
</svg>