<?xml version="1.0" encoding="UTF-8"?>
<svg width="22px" height="22px" viewBox="0 0 22 22" version="1.1" xmlns="http://www.w3.org/2000/svg" xmlns:xlink="http://www.w3.org/1999/xlink">
    <!-- Generator: Sketch 55.2 (78181) - https://sketchapp.com -->
    <title>素材</title>
    <desc>Created with Sketch.</desc>
    <g id="交互设计框架（完整）" stroke="none" stroke-width="1" fill="none" fill-rule="evenodd">
        <g id="切图" transform="translate(-296.000000, -700.000000)" fill="currentColor">
            <g id="素材" transform="translate(296.000000, 699.000000)">
                <g id="编组-5" transform="translate(0.000000, 1.000000)">
                    <rect id="形状结合" x="6" y="12" width="10" height="2" rx="1"></rect>
                    <path d="M11.440202,0.5 L2,0.5 C1.72385763,0.5 1.5,0.723857625 1.5,1 L1.5,20 C1.5,20.2761424 1.72385763,20.5 2,20.5 L19.5,20.5 C20.0522847,20.5 20.5,20.0522847 20.5,19.5 L20.5,6.50772823 L14.4005068,6.50772823 L11.440202,0.5 Z M13.5852487,7.52567564 L19.5,7.52567564 L19.5,18.5 C19.5,19.0522847 19.0522847,19.5 18.5,19.5 L3.5,19.5 C2.94771525,19.5 2.5,19.0522847 2.5,18.5 L2.5,2.5 C2.5,1.94771525 2.94771525,1.5 3.5,1.5 L10.6161003,1.5 L13.5852487,7.52567564 Z" id="形状结合" stroke="currentColor" fill-rule="nonzero"></path>
                    <path d="M19.5,6.5 L20.5,6.5 L20.5,3.5 C20.5,2.94771525 20.0522847,2.5 19.5,2.5 L12.5,2.5 L12.5,3.5 L18.5,3.5 C19.0522847,3.5 19.5,3.94771525 19.5,4.5 L19.5,6.5 Z" id="形状结合" stroke="currentColor"></path>
                </g>
            </g>
        </g>
    </g>
</svg>