<?xml version="1.0" encoding="UTF-8"?>
<svg width="17px" height="3px" viewBox="0 0 17 3" version="1.1" xmlns="http://www.w3.org/2000/svg" xmlns:xlink="http://www.w3.org/1999/xlink">
    <!-- Generator: Sketch 62 (91390) - https://sketch.com -->
    <title>形状结合</title>
    <desc>Created with Sketch.</desc>
    <g id="草稿箱、知识云盘" stroke="none" stroke-width="1" fill="none" fill-rule="evenodd">
        <g id="知识云盘、知识标签备份-2" transform="translate(-313.000000, -462.000000)" fill="#309BFF">
            <g id="知识云盘备份" transform="translate(0.000000, 115.000000)">
                <path d="M314.5,347 C315.328427,347 316,347.671573 316,348.5 C316,349.328427 315.328427,350 314.5,350 C313.671573,350 313,349.328427 313,348.5 C313,347.671573 313.671573,347 314.5,347 Z M321.5,347 C322.328427,347 323,347.671573 323,348.5 C323,349.328427 322.328427,350 321.5,350 C320.671573,350 320,349.328427 320,348.5 C320,347.671573 320.671573,347 321.5,347 Z M328.5,347 C329.328427,347 330,347.671573 330,348.5 C330,349.328427 329.328427,350 328.5,350 C327.671573,350 327,349.328427 327,348.5 C327,347.671573 327.671573,347 328.5,347 Z" id="形状结合"></path>
            </g>
        </g>
    </g>
</svg>