<svg width="30" height="30" xmlns="http://www.w3.org/2000/svg" xmlns:xlink="http://www.w3.org/1999/xlink"><defs><linearGradient x1="0%" y1="0%" x2="100%" y2="100%" id="a"><stop stop-color="#707FFF" offset="0%"/><stop stop-color="#6172FF" offset="100%"/></linearGradient><linearGradient x1="100%" y1="45.226%" x2="0%" y2="45.226%" id="d"><stop stop-color="#EBEDFF" offset="0%"/><stop stop-color="#FFF" offset="100%"/></linearGradient><filter x="-33.3%" y="-24.6%" width="166.7%" height="161.5%" filterUnits="objectBoundingBox" id="b"><feOffset dy="1" in="SourceAlpha" result="shadowOffsetOuter1"/><feGaussianBlur stdDeviation="1.5" in="shadowOffsetOuter1" result="shadowBlurOuter1"/><feColorMatrix values="0 0 0 0 0.26234773 0 0 0 0 0.333740056 0 0 0 0 0.921676857 0 0 0 1 0" in="shadowBlurOuter1"/></filter><path d="M0 .91v14.43c0 .503.407.91.91.91h13.18a.91.91 0 00.91-.91V.91a.91.91 0 00-.91-.91H.91A.91.91 0 000 .91z" id="c"/></defs><g fill="none" fill-rule="evenodd"><path d="M4 0h22a4 4 0 014 4v22a4 4 0 01-4 4H4a4 4 0 01-4-4V4a4 4 0 014-4z" fill="url(#a)"/><g transform="translate(7.5 6.875)"><g fill-rule="nonzero"><use fill="#000" filter="url(#b)" xlink:href="#c"/><use fill="url(#d)" xlink:href="#c"/></g><rect stroke="#6272FF" stroke-width="1.25" x="6.25" y="3.75" width="2.5" height="5" rx="1.25"/><path d="M10.625 6.875V7.5c0 2.071-1.4 3.125-3.125 3.125-1.726 0-3.125-1.054-3.125-3.125v-.625" stroke="#6272FF" stroke-width="1.25" stroke-linecap="round"/><path fill="#6272FF" d="M6.875 10.625h1.25v2.5h-1.25z"/><rect fill="#6272FF" x="4.375" y="12.5" width="6.25" height="1.25" rx=".625"/></g></g></svg>