<svg width="30" height="30" xmlns="http://www.w3.org/2000/svg" xmlns:xlink="http://www.w3.org/1999/xlink"><defs><linearGradient x1="100%" y1="100%" x2="0%" y2="0%" id="a"><stop stop-color="#1EBA83" offset="0%"/><stop stop-color="#2ACC93" offset="100%"/></linearGradient><linearGradient x1="100%" y1="45.226%" x2="0%" y2="45.226%" id="d"><stop stop-color="#E6FFF6" offset="0%"/><stop stop-color="#FFF" offset="100%"/></linearGradient><filter x="-34.4%" y="-35.2%" width="168.8%" height="188%" filterUnits="objectBoundingBox" id="b"><feOffset dy="1" in="SourceAlpha" result="shadowOffsetOuter1"/><feGaussianBlur stdDeviation="1.5" in="shadowOffsetOuter1" result="shadowBlurOuter1"/><feColorMatrix values="0 0 0 0 0.116725408 0 0 0 0 0.678753397 0 0 0 0 0.478530926 0 0 0 1 0" in="shadowBlurOuter1"/></filter><path d="M.91 0h12.726a.91.91 0 01.91.91v9.545a.91.91 0 01-.91.909H.91a.91.91 0 01-.909-.91V.91A.91.91 0 01.91 0z" id="c"/></defs><g fill="none" fill-rule="evenodd"><path d="M2.5 0h25A2.5 2.5 0 0130 2.5v25a2.5 2.5 0 01-2.5 2.5h-25A2.5 2.5 0 010 27.5v-25A2.5 2.5 0 012.5 0z" fill="url(#a)"/><g transform="translate(8.182 7.727)"><rect stroke="#FFF" stroke-width=".5" fill="#FFF" transform="rotate(45 3.649 12.74)" x="2.967" y="10.19" width="1.364" height="5.1" rx=".682"/><rect stroke="#FFF" stroke-width=".5" fill="#FFF" transform="scale(-1 1) rotate(45 0 -12.53)" x="9.785" y="10.19" width="1.364" height="5.1" rx=".682"/><g fill-rule="nonzero"><use fill="#000" filter="url(#b)" xlink:href="#c"/><use fill="url(#d)" xlink:href="#c"/></g><path d="M5.455 7.834v-3.85a.455.455 0 01.688-.39L9.35 5.52a.455.455 0 010 .78L6.143 8.223a.455.455 0 01-.688-.39z" fill="#2DD097"/></g></g></svg>