<svg width="30" height="30" xmlns="http://www.w3.org/2000/svg" xmlns:xlink="http://www.w3.org/1999/xlink"><defs><linearGradient x1="0%" y1="0%" x2="100%" y2="100%" id="a"><stop stop-color="#FFCE5E" offset="0%"/><stop stop-color="#FFBB20" offset="100%"/></linearGradient><linearGradient x1="158.665%" y1="45.226%" x2="-10.542%" y2="45.226%" id="d"><stop stop-color="#FFF1D1" offset="0%"/><stop stop-color="#FFFDF8" offset="100%"/></linearGradient><filter x="-33.3%" y="-29.1%" width="166.7%" height="172.7%" filterUnits="objectBoundingBox" id="b"><feOffset dy="1" in="SourceAlpha" result="shadowOffsetOuter1"/><feGaussianBlur stdDeviation="1.5" in="shadowOffsetOuter1" result="shadowBlurOuter1"/><feColorMatrix values="0 0 0 0 0.940896739 0 0 0 0 0.724290146 0 0 0 0 0.226474993 0 0 0 1 0" in="shadowBlurOuter1"/></filter><path d="M8.41 8.125h4.752L15 10h6.59a.91.91 0 01.91.91v10.056a.91.91 0 01-.91.909H8.41a.91.91 0 01-.91-.91V9.036a.91.91 0 01.91-.91z" id="c"/></defs><g fill="none" fill-rule="evenodd"><path d="M4 0h22a4 4 0 014 4v22a4 4 0 01-4 4H4a4 4 0 01-4-4V4a4 4 0 014-4z" fill="url(#a)"/><g fill-rule="nonzero"><use fill="#000" filter="url(#b)" xlink:href="#c"/><use fill="url(#d)" xlink:href="#c"/></g><path d="M11.875 13.75h6.25a.625.625 0 110 1.25h-6.25a.625.625 0 110-1.25zm0 3.125h6.25a.625.625 0 110 1.25h-6.25a.625.625 0 110-1.25z" fill="#FFC235"/></g></svg>