<svg width="30" height="30" xmlns="http://www.w3.org/2000/svg" xmlns:xlink="http://www.w3.org/1999/xlink"><defs><linearGradient x1="100%" y1="100%" x2="0%" y2="0%" id="a"><stop stop-color="#FF6969" offset="0%"/><stop stop-color="#FF887D" offset="100%"/></linearGradient><linearGradient x1="0%" y1="83.471%" x2="100%" y2="16.529%" id="b"><stop stop-color="#FFCEC6" offset="0%"/><stop stop-color="#FFF" offset="100%"/></linearGradient><linearGradient x1="184.958%" y1="45.226%" x2="-3.502%" y2="45.226%" id="e"><stop stop-color="#F8CFC8" offset="0%"/><stop stop-color="#FFF" offset="100%"/></linearGradient><filter x="-43.8%" y="-40%" width="187.7%" height="200%" filterUnits="objectBoundingBox" id="c"><feOffset dy="1" in="SourceAlpha" result="shadowOffsetOuter1"/><feGaussianBlur stdDeviation="1.5" in="shadowOffsetOuter1" result="shadowBlurOuter1"/><feColorMatrix values="0 0 0 0 0.933333333 0 0 0 0 0.403921569 0 0 0 0 0.317647059 0 0 0 1 0" in="shadowBlurOuter1"/></filter><path d="M4.375 9.375a2.5 2.5 0 100-5 2.5 2.5 0 000 5zM8.75 13.75H0a4.375 4.375 0 017.369-3.19L9.75 7.722a.938.938 0 011.437 1.205l-2.728 3.25c.188.489.291 1.019.291 1.573 0 .345-.28.625-.625.625h-7.5a.625.625 0 110-1.25h7.5c.345 0 .625.28.625.625z" id="d"/></defs><g fill="none" fill-rule="evenodd"><path d="M4 0h22a4 4 0 014 4v22a4 4 0 01-4 4H4a4 4 0 01-4-4V4a4 4 0 014-4z" fill="url(#a)"/><path d="M7.472 8.99A3.751 3.751 0 005 3.176V1.126C5 .504 5.44 0 5.982 0h11.786c.542 0 .982.504.982 1.125v9c0 .621-.44 1.125-.982 1.125H9.74a6.254 6.254 0 00-2.268-2.26z" fill="url(#b)" fill-rule="nonzero" transform="translate(4.375 8.125)"/><g fill-rule="nonzero" transform="translate(4.375 8.125)"><use fill="#000" filter="url(#c)" xlink:href="#d"/><use fill="url(#e)" xlink:href="#d"/></g><path d="M17.5 10.625h1.25a1.875 1.875 0 010 3.75h-.625v1.25a.625.625 0 11-1.25 0V11.25c0-.345.28-.625.625-.625zm.625 1.25v1.25h.625a.625.625 0 100-1.25h-.625z" fill="#F77166"/></g></svg>