<svg width="30" height="30" xmlns="http://www.w3.org/2000/svg" xmlns:xlink="http://www.w3.org/1999/xlink"><defs><linearGradient x1="142.302%" y1="45.226%" x2="-6.115%" y2="45.226%" id="c"><stop stop-color="#D8EADC" offset="0%"/><stop stop-color="#FFF" offset="100%"/></linearGradient><filter x="-33.3%" y="-24.6%" width="166.7%" height="161.5%" filterUnits="objectBoundingBox" id="a"><feOffset dy="1" in="SourceAlpha" result="shadowOffsetOuter1"/><feGaussianBlur stdDeviation="1.5" in="shadowOffsetOuter1" result="shadowBlurOuter1"/><feColorMatrix values="0 0 0 0 0.182056727 0 0 0 0 0.607704937 0 0 0 0 0.282019564 0 0 0 1 0" in="shadowBlurOuter1"/></filter><path d="M.227 1.136a.91.91 0 01.91-.909h13.181a.91.91 0 01.91.91v14.431a.91.91 0 01-.91.91H1.136a.91.91 0 01-.909-.91V1.136zm9.375 7.841a.625.625 0 100 1.25h1.875a.625.625 0 100-1.25H9.602zm-1.875 2.5a.625.625 0 000 1.25h3.75a.625.625 0 100-1.25h-3.75zM6.292 5.983l.716-1.24 1.392.804-.716 1.24-1.392-.804zm-.555.962l1.392.804-1.923 3.33-1.113.32-.28-1.123 1.924-3.33zm1.92-3.325c-.513-.296-1.132-.183-1.383.252l-3.56 6.167a.411.411 0 00-.044.29l.402 1.982a.596.596 0 00.742.428l1.918-.642c.1-.034.18-.098.229-.183l3.56-6.167c.252-.435.04-1.027-.473-1.323L7.656 3.62z" id="b"/></defs><g fill="none" fill-rule="evenodd"><path d="M2.5 0h25A2.5 2.5 0 0130 2.5v25a2.5 2.5 0 01-2.5 2.5h-25A2.5 2.5 0 010 27.5v-25A2.5 2.5 0 012.5 0z" fill="#41C560"/><g transform="translate(7.273 6.648)" fill-rule="nonzero"><use fill="#000" filter="url(#a)" xlink:href="#b"/><use fill="url(#c)" xlink:href="#b"/></g></g></svg>