<svg width="30" height="30" xmlns="http://www.w3.org/2000/svg"><defs><linearGradient x1="0%" y1="0%" x2="100%" y2="100%" id="a"><stop stop-color="#FF9E5E" offset="0%"/><stop stop-color="#FF8C20" offset="100%"/></linearGradient><linearGradient x1="100%" y1="100%" x2="0%" y2="100%" id="d"><stop stop-color="#FFEDDE" offset="0%"/><stop stop-color="#FFF8F2" offset="100%"/></linearGradient><linearGradient x1="102.113%" y1="91.218%" x2="0%" y2="89.12%" id="c"><stop stop-color="#FFEEDF" offset="0%"/><stop stop-color="#FFF7F1" offset="100%"/></linearGradient><linearGradient x1="100%" y1="100%" x2="0%" y2="100%" id="f"><stop stop-color="#FFEDDE" offset="0%"/><stop stop-color="#FFF8F2" offset="100%"/></linearGradient><linearGradient x1="66.779%" y1="102.681%" x2="33.902%" y2="100%" id="e"><stop stop-color="#FFEEDF" offset="0%"/><stop stop-color="#FFF7F1" offset="100%"/></linearGradient><filter x="-47.4%" y="-60%" width="194.7%" height="213.3%" filterUnits="objectBoundingBox" id="b"><feOffset dy="1" in="SourceAlpha" result="shadowOffsetOuter1"/><feGaussianBlur stdDeviation="1.5" in="shadowOffsetOuter1" result="shadowBlurOuter1"/><feColorMatrix values="0 0 0 0 0.928753397 0 0 0 0 0.421729859 0 0 0 0 0 0 0 0 1 0" in="shadowBlurOuter1" result="shadowMatrixOuter1"/><feMerge><feMergeNode in="shadowMatrixOuter1"/><feMergeNode in="SourceGraphic"/></feMerge></filter></defs><g fill="none" fill-rule="evenodd"><path d="M4 0h22a4 4 0 014 4v22a4 4 0 01-4 4H4a4 4 0 01-4-4V4a4 4 0 014-4z" fill="url(#a)"/><g filter="url(#b)" transform="translate(5.625 7.5)" stroke-width=".625"><path d="M7.595 10.453a.863.863 0 01-.444.123H3.386a.9.9 0 01-.886-.913.9.9 0 01.886-.913h3.765c.082 0 .162.012.237.033l-.96-7.755a.908.908 0 01.768-1.02c.485-.064.93.29.991.79l1.56 12.61a.908.908 0 01-.88 1.029.896.896 0 01-.878-.798l-.394-3.186zm7.257 3.204c-.557.448-1.201.755-1.874.755-.124 0-.249-.01-.375-.032-.684-.12-1.22-.49-1.51-1.04-.383-.728-.318-1.71.194-2.922.452-1.07 1.166-1.977 2.01-2.552.881-.6 1.82-.778 2.578-.487.62.238.984.773 1.12 1.199.082.235.274 1.003-.21 2.144l-.032.076c-.075.176-.158.371-.238.575a.83.83 0 01-.035.106 4.188 4.188 0 01-.054.127c-.054.149-.105.3-.147.447-.116.404-.119.612-.11.7.59.126 1.042-.15 1.253-.43a.767.767 0 011.097-.141c.341.273.403.779.137 1.13a2.791 2.791 0 01-2.863 1.005 1.455 1.455 0 01-.941-.66zm.14-2.697c.1-.265.212-.535.328-.807l.032-.076c.256-.605.176-.933.17-.959a.835.835 0 01-.012-.033c-.006-.016-.059-.15-.182-.197-.578-.222-1.913.53-2.607 2.173-.433 1.025-.303 1.416-.253 1.511.071.137.255.195.397.22.723.125 1.738-.974 2.128-1.832zm.53-1.842a.826.826 0 010 0z" stroke="url(#c)" fill="url(#d)"/><path d="M.886 14.442a.862.862 0 01-.411-.105.926.926 0 01-.373-1.232L6.522.489A.874.874 0 017.72.105c.434.234.601.785.374 1.232L1.672 13.952a.883.883 0 01-.786.49" stroke="url(#e)" fill="url(#f)"/></g></g></svg>