<svg width="30" height="30" xmlns="http://www.w3.org/2000/svg" xmlns:xlink="http://www.w3.org/1999/xlink"><defs><linearGradient x1="100%" y1="100%" x2="0%" y2="0%" id="a"><stop stop-color="#2DC5B8" offset="0%"/><stop stop-color="#2BC8BE" offset="100%"/></linearGradient><linearGradient x1="22.138%" y1="149.268%" x2="22.138%" y2="-11.575%" id="d"><stop stop-color="#CAFFFA" offset="0%"/><stop stop-color="#FFF" offset="100%"/></linearGradient><linearGradient x1="50%" y1="-17.816%" x2="50%" y2="218.047%" id="g"><stop stop-color="#FFF" offset="0%"/><stop stop-color="#82E8E0" offset="100%"/></linearGradient><linearGradient x1="100%" y1="40.816%" x2="0%" y2="50%" id="h"><stop stop-color="#D3FDFA" offset="0%"/><stop stop-color="#E9FEFC" offset="100%"/></linearGradient><filter x="-42.1%" y="-40.3%" width="184.3%" height="197.5%" filterUnits="objectBoundingBox" id="b"><feMorphology radius=".795" operator="dilate" in="SourceAlpha" result="shadowSpreadOuter1"/><feOffset dy="1" in="shadowSpreadOuter1" result="shadowOffsetOuter1"/><feMorphology radius="1" in="SourceAlpha" result="shadowInner"/><feOffset dy="1" in="shadowInner" result="shadowInner"/><feComposite in="shadowOffsetOuter1" in2="shadowInner" operator="out" result="shadowOffsetOuter1"/><feGaussianBlur stdDeviation="1.5" in="shadowOffsetOuter1" result="shadowBlurOuter1"/><feColorMatrix values="0 0 0 0 0.163235629 0 0 0 0 0.727524909 0 0 0 0 0.679263326 0 0 0 1 0" in="shadowBlurOuter1"/></filter><filter x="-31%" y="-63.2%" width="162%" height="257.9%" filterUnits="objectBoundingBox" id="e"><feOffset dy="1" in="SourceAlpha" result="shadowOffsetOuter1"/><feGaussianBlur stdDeviation="1.5" in="shadowOffsetOuter1" result="shadowBlurOuter1"/><feColorMatrix values="0 0 0 0 0.134364105 0 0 0 0 0.679262908 0 0 0 0 0.630070655 0 0 0 1 0" in="shadowBlurOuter1"/></filter><path d="M1.146 11.887V6.4C1.146 2.866 3.839 0 7.16 0h1.72c3.322 0 6.015 2.866 6.015 6.4v5.487" id="c"/><path d="M2.363 9.246v4.441h-.142a2.22 2.22 0 010-4.44h.142zm11.407 0h.143a2.22 2.22 0 110 4.441h-.143v-4.44zM4.196 8.47c.788 0 1.426.639 1.426 1.426v3.482a1.426 1.426 0 01-2.852 0V9.896c0-.787.639-1.426 1.426-1.426zm7.741 0c.788 0 1.426.639 1.426 1.426v3.482a1.426 1.426 0 01-2.852 0V9.896c0-.787.639-1.426 1.426-1.426z" id="f"/></defs><g fill="none" fill-rule="evenodd"><path d="M4 0h22a4 4 0 014 4v22a4 4 0 01-4 4H4a4 4 0 01-4-4V4a4 4 0 014-4z" fill="url(#a)"/><g stroke-linecap="round" transform="translate(6.75 8.25)"><use fill="#000" filter="url(#b)" xlink:href="#c"/><use stroke="url(#d)" stroke-width="1.591" xlink:href="#c"/></g><g transform="translate(6.75 8.25)"><use fill="#000" filter="url(#e)" xlink:href="#f"/><use fill="url(#g)" xlink:href="#f"/></g><path d="M16.875 11.875c.345 0 .625.28.625.625V15a.625.625 0 11-1.25 0v-2.5c0-.345.28-.625.625-.625zm-3.75.625c.345 0 .625.28.625.625v1.25a.625.625 0 11-1.25 0v-1.25c0-.345.28-.625.625-.625zm1.875.625a.625.625 0 110 1.25.625.625 0 010-1.25zm-3.75 0c.345 0 .625.28.625.625v.625a.625.625 0 11-1.25 0v-.625c0-.345.28-.625.625-.625zm7.5 0c.345 0 .625.28.625.625v.625a.625.625 0 11-1.25 0v-.625c0-.345.28-.625.625-.625z" fill="url(#h)"/></g></svg>