<?xml version="1.0" encoding="UTF-8"?>
<svg width="20px" height="20px" viewBox="0 0 20 20" version="1.1" xmlns="http://www.w3.org/2000/svg" xmlns:xlink="http://www.w3.org/1999/xlink">
    <!-- Generator: Sketch 55.2 (78181) - https://sketchapp.com -->
    <title>知识标签</title>
    <desc>Created with Sketch.</desc>
    <g id="交互设计框架（完整）" stroke="none" stroke-width="1" fill="none" fill-rule="evenodd">
        <g id="切图" transform="translate(-245.000000, -112.000000)" fill="currentColor" fill-rule="nonzero">
            <g id="知识标签" transform="translate(245.000000, 112.000000)">
                <rect id="矩形" opacity="0" x="0" y="0" width="19.9804878" height="20"></rect>
                <path d="M10.0062439,18.7279297 C9.51102439,18.7279297 9.04819512,18.4935547 8.76819512,18.0988281 L8.35941463,17.5240234 C8.32827767,17.4876219 8.28217479,17.4675356 8.23434146,17.4695313 L2.008,17.503125 C0.900878049,17.503125 0,16.640625 0,15.5800781 L0,3.22851563 C0,2.16796875 0.900878049,1.30566406 2.008,1.30566406 L7.00565854,1.27207031 C7.98126829,1.27207031 8.90068293,1.62773438 9.59297561,2.27363281 C9.74437657,2.41484402 9.88317938,2.56900939 10.0078049,2.734375 C10.1316051,2.57120284 10.2690786,2.41889342 10.4187317,2.27910156 C11.1123902,1.63046875 12.0314146,1.27304687 13.0066341,1.27304687 L17.9763902,1.27304687 C19.0835122,1.27304687 19.9843902,2.13574219 19.9843902,3.19609375 L19.9843902,15.546875 C19.9843902,16.6072266 19.0835122,17.4697266 17.9763902,17.4697266 L11.7781463,17.4697266 C11.7302457,17.4676702 11.684058,17.487762 11.652878,17.5242188 L11.2442927,18.0990234 C10.9642927,18.4927734 10.5014634,18.7279297 10.0062439,18.7279297 Z M2.008,2.67324219 C1.65385366,2.67324219 1.36585366,2.92246094 1.36585366,3.22890625 L1.36585366,15.5800781 C1.36585366,15.8865234 1.65385366,16.1359375 2.008,16.1359375 L8.23434146,16.1023437 C8.72956098,16.1023437 9.19239024,16.3367187 9.47239024,16.73125 L9.88097561,17.30625 C9.91687805,17.3566406 9.98595122,17.3607422 10.0062439,17.3607422 C10.0265366,17.3607422 10.0954146,17.3566406 10.1313171,17.30625 L10.5410732,16.73125 C10.8210732,16.3375 11.2837073,16.1023437 11.779122,16.1023437 L17.9763902,16.1023437 C18.3305366,16.1023437 18.6185366,15.853125 18.6185366,15.5466797 L18.6185366,3.19511719 C18.6185366,2.88867188 18.3305366,2.63925781 17.9763902,2.63925781 L13.0066341,2.63925781 C11.7287805,2.63925781 10.6891707,3.59160156 10.6891707,4.76191406 L10.6891707,13.7658203 C10.6891707,14.1433587 10.383414,14.4494141 10.0062439,14.4494141 C9.62907383,14.4494141 9.32331707,14.1433587 9.32331707,13.7658203 L9.32331707,4.76191406 C9.32331707,4.20019531 9.08917073,3.67167969 8.66185366,3.27382813 C8.22321951,2.86367188 7.63512195,2.63925781 7.00565854,2.63925781 L2.008,2.67324219 Z" id="形状"></path>
                <path d="M7.07356098,6.45429687 L3.85112195,6.45429687 C3.47395188,6.45429687 3.16819512,6.14824153 3.16819512,5.77070312 C3.16819512,5.39316472 3.47395188,5.08710937 3.85112195,5.08710937 L7.07356098,5.08710937 C7.45073105,5.08710937 7.7564878,5.39316472 7.7564878,5.77070312 C7.7564878,6.14824153 7.45073105,6.45429687 7.07356098,6.45429687 Z M5.82087805,9.42792969 L3.85014634,9.42792969 C3.47297627,9.42792969 3.16721951,9.12187434 3.16721951,8.74433594 C3.16721951,8.36679753 3.47297627,8.06074219 3.85014634,8.06074219 L5.82087805,8.06074219 C6.19804812,8.06074219 6.50380488,8.36679753 6.50380488,8.74433594 C6.50380488,9.12187434 6.19804812,9.42792969 5.82087805,9.42792969 L5.82087805,9.42792969 Z M16.1592195,6.45429687 L12.9369756,6.45429687 C12.5598055,6.45429687 12.2540488,6.14824153 12.2540488,5.77070312 C12.2540488,5.39316472 12.5598055,5.08710937 12.9369756,5.08710937 L16.1592195,5.08710937 C16.5363896,5.08710937 16.8421463,5.39316472 16.8421463,5.77070312 C16.8421463,6.14824153 16.5363896,6.45429687 16.1592195,6.45429687 L16.1592195,6.45429687 Z M16.1592195,9.42792969 L14.1894634,9.42792969 C13.8122933,9.42792969 13.5065366,9.12187434 13.5065366,8.74433594 C13.5065366,8.36679753 13.8122933,8.06074219 14.1894634,8.06074219 L16.1592195,8.06074219 C16.5363896,8.06074219 16.8421463,8.36679753 16.8421463,8.74433594 C16.8421463,9.12187434 16.5363896,9.42792969 16.1592195,9.42792969 Z" id="形状"></path>
            </g>
        </g>
    </g>
</svg>