<?xml version="1.0" encoding="UTF-8"?>
<svg width="20px" height="20px" viewBox="0 0 20 20" version="1.1" xmlns="http://www.w3.org/2000/svg" xmlns:xlink="http://www.w3.org/1999/xlink">
    <!-- Generator: Sketch 55.2 (78181) - https://sketchapp.com -->
    <title>云盘标签</title>
    <desc>Created with Sketch.</desc>
    <g id="交互设计框架（完整）" stroke="none" stroke-width="1" fill="none" fill-rule="evenodd">
        <g id="切图" transform="translate(-290.000000, -112.000000)" fill-rule="nonzero">
            <g id="硬盘" transform="translate(290.000000, 112.000000)">
                <rect id="矩形" fill="currentColor" opacity="0" x="0" y="0" width="20" height="20"></rect>
                <path d="M18.3244141,15.4060547 C18.3349609,15.2978516 18.3363281,15.1886719 18.3205078,15.0792969 L16.5089844,2.46875 C16.4142578,1.80878906 15.8472656,1.31113281 15.1900391,1.31113281 L4.59609375,1.31113281 C3.92265625,1.31113281 3.35410156,1.82285156 3.27304687,2.50136719 L1.76953125,15.1123047 C1.76914062,15.1150391 1.76972656,15.1177734 1.76953125,15.1205078 C1.65859375,15.4117187 1.5953125,15.7259766 1.5953125,16.0556641 C1.5953125,17.5103516 2.77890625,18.6939453 4.23378906,18.6939453 L15.7703125,18.6939453 C17.2251953,18.6939453 18.4085937,17.5103516 18.4085937,16.0556641 C18.4085937,15.8310547 18.3773437,15.6142578 18.3244141,15.4060547 Z M4.53046875,2.65136719 C4.5359375,2.60507812 4.56816406,2.57734375 4.59628906,2.57734375 L15.1902344,2.57734375 C15.2214844,2.57734375 15.2498047,2.60800781 15.2556641,2.64882812 L16.8351563,13.6431641 C16.5091797,13.4986328 16.1494141,13.4167969 15.7705078,13.4167969 L4.23378906,13.4167969 C3.87578125,13.4167969 3.534375,13.4892578 3.22265625,13.6189453 L4.53046875,2.65136719 Z M15.7703125,17.4275391 L4.23378906,17.4275391 C3.47714844,17.4275391 2.86152344,16.8121094 2.86152344,16.0554687 C2.86152344,15.2988281 3.47714844,14.6832031 4.23378906,14.6832031 L15.7703125,14.6832031 C16.5269531,14.6832031 17.1423828,15.2988281 17.1423828,16.0554687 C17.1423828,16.8121094 16.5269531,17.4275391 15.7703125,17.4275391 Z" id="形状" fill="currentColor"></path>
                <path d="M16.2082031,15.4589844 L14.5048828,15.4589844 C14.1552734,15.4589844 13.8716797,15.7423828 13.8716797,16.0921875 C13.8716797,16.4419922 14.1550781,16.7253906 14.5048828,16.7253906 L16.2082031,16.7253906 C16.5578125,16.7253906 16.8414062,16.4419922 16.8414062,16.0921875 C16.8414062,15.7423828 16.5578125,15.4589844 16.2082031,15.4589844 Z M7.98105469,10.7933594 L12.1417969,10.7933594 C13.0945312,10.7933594 13.8697266,10.0181641 13.8697266,9.06542969 L13.8697266,8.86875 C13.8697266,8.04726563 13.2923828,7.36074219 12.5230469,7.18613281 C12.3339844,5.94726562 11.2644531,4.99414062 9.97363281,4.99414062 C8.66289062,4.99414062 7.5796875,5.9765625 7.41542969,7.24335937 C6.74101563,7.47890625 6.25273438,8.11464844 6.25273438,8.86875 L6.25273438,9.06542969 C6.25292969,10.0181641 7.028125,10.7933594 7.98105469,10.7933594 L7.98105469,10.7933594 Z M9.97382813,6.26054688 C10.6992188,6.26054688 11.2896484,6.85078125 11.2896484,7.57636719 L11.2929688,7.57636719 C11.2722656,7.63886719 11.2583984,7.70449219 11.2583984,7.77382813 C11.2583984,8.12363281 11.5417969,8.40703125 11.8916016,8.40703125 L12.1417969,8.40703125 C12.3962891,8.40703125 12.6035156,8.61425781 12.6035156,8.86894531 L12.6035156,9.065625 C12.6035156,9.32011719 12.3962891,9.52734375 12.1417969,9.52734375 L7.98105469,9.52734375 C7.7265625,9.52734375 7.51933594,9.32011719 7.51933594,9.065625 L7.51933594,8.86894531 C7.51933594,8.61425781 7.7265625,8.40703125 7.98105469,8.40703125 L8.06054688,8.40703125 C8.41035156,8.40703125 8.69375,8.12363281 8.69375,7.77382813 C8.69375,7.70332031 8.67949219,7.63691406 8.65839844,7.57363281 C8.65976563,6.84921875 9.24921875,6.26054688 9.97382813,6.26054688 Z" id="形状" fill="currentColor"></path>
            </g>
        </g>
    </g>
</svg>