<?xml version="1.0" encoding="UTF-8"?>
<svg width="22px" height="22px" viewBox="0 0 22 22" version="1.1" xmlns="http://www.w3.org/2000/svg" xmlns:xlink="http://www.w3.org/1999/xlink">
    <!-- Generator: Sketch 55.2 (78181) - https://sketchapp.com -->
    <title>题目</title>
    <desc>Created with Sketch.</desc>
    <g id="交互设计框架（完整）" stroke="none" stroke-width="1" fill="none" fill-rule="evenodd">
        <g id="切图" transform="translate(-204.000000, -700.000000)">
            <g id="题目" transform="translate(204.000000, 699.000000)">
                <g id="编组-8" transform="translate(0.000000, 1.000000)">
                    <path d="M2,1.5 L2,20.5 C2,20.7761424 2.22385763,21 2.5,21 L16.5,21 C16.7761424,21 17,20.7761424 17,20.5 L17,1.5 C17,1.22385763 16.7761424,1 16.5,1 L2.5,1 C2.22385763,1 2,1.22385763 2,1.5 Z" id="Path" stroke="currentColor" stroke-width="2" fill-rule="nonzero"></path>
                    <rect id="Rectangle" fill="currentColor" fill-rule="nonzero" x="6" y="7" width="7" height="2" rx="1"></rect>
                    <rect id="Rectangle" fill="currentColor" fill-rule="nonzero" x="6" y="12" width="4" height="2" rx="1"></rect>
                    <path d="M17.5,18.5 C20.0096154,18.5 22,16.5096154 22,14 C22,11.4903846 20.0096154,9.5 17.5,9.5 C14.9903846,9.5 13,11.4903846 13,14 C13,16.5096154 14.9903846,18.5 17.5,18.5 Z" id="Path" fill="currentColor" fill-rule="nonzero"></path>
                    <polyline id="Path-3" stroke="#FFF" stroke-width="1.5" stroke-linecap="round" points="16 13.697631 17.1404699 14.8714244 19 13"></polyline>
                </g>
            </g>
        </g>
    </g>
</svg>