<?xml version="1.0" encoding="UTF-8"?>
<svg width="14px" height="14px" viewBox="0 0 14 14" version="1.1" xmlns="http://www.w3.org/2000/svg" xmlns:xlink="http://www.w3.org/1999/xlink">
    <!-- Generator: Sketch 62 (91390) - https://sketch.com -->
    <title>编组 10备份 2</title>
    <desc>Created with Sketch.</desc>
    <g id="页面-1" stroke="none" stroke-width="1" fill="none" fill-rule="evenodd">
        <g id="6" transform="translate(-651.000000, -185.000000)">
            <g id="编组" transform="translate(320.000000, 91.000000)">
                <g id="编组-10备份-2" transform="translate(331.000000, 94.000000)">
                    <circle id="Oval备份" fill="#E0E0E0" cx="7" cy="7" r="7"></circle>
                    <rect id="矩形" fill="#000000" fill-rule="nonzero" opacity="0" x="1" y="2" width="12" height="10"></rect>
                    <path d="M5,6.6409351 C5.42125533,6.16457028 5.80574043,5.82564255 6.15334987,5.62424929 C6.50095931,5.42287768 6.79687115,5.32217563 7.04126461,5.32217563 C7.21691417,5.33125657 7.47400009,5.30364577 7.45836642,5.65998855 C7.45836642,5.78564963 7.32163765,6.31835087 7.04820119,7.25808145 C6.60229884,8.79559509 6.37935821,9.7224565 6.37935821,10.0385358 C6.37935821,10.0992233 6.39409583,10.1500722 6.42364484,10.1911799 C6.45309899,10.2324067 6.48474584,10.2529064 6.51856434,10.2529064 C6.65352206,10.2529064 7.80302413,9.69423959 7.80302413,9.69423959 C7.22505254,10.2529064 6.80331228,10.6102125 6.53752926,10.7661362 C6.27177787,10.922049 6.05447716,11 5.8858169,11 C5.73812453,11 5.62105645,10.9522899 5.53466537,10.8570862 C5.44814779,10.7618609 5.40494698,10.6297165 5.40494698,10.4607938 C5.40494698,9.91946625 5.72132069,8.59634491 6.35404705,6.49152722 C6.38350119,6.39195082 6.49781782,6.05707108 6.28443872,6.09524564 C6.20000843,6.09524564 5,6.6409351 5,6.6409351 Z M7.41884474,3 C7.58791613,3 7.72706955,3.05750537 7.83631552,3.1722888 C7.94541391,3.28718048 8,3.43425049 8,3.61349882 C8,3.86010193 7.91676096,4.07715682 7.75036721,4.2648042 C7.58382588,4.45258147 7.39695971,4.54633481 7.18965276,4.54633481 C7.02593665,4.54633481 6.88949252,4.48750897 6.78039413,4.36984647 C6.67114816,4.2521948 6.61667803,4.09815445 6.61667803,3.90762801 C6.61667803,3.65550491 6.69571085,3.44119919 6.85404002,3.26471085 C7.01226376,3.08824417 7.20054255,3 7.41884474,3 Z" id="形状" fill="#757575" fill-rule="nonzero"></path>
                </g>
            </g>
        </g>
    </g>
</svg>